<?xml version="1.0" encoding="iso-8859-1"?>
<!-- Uploaded to: SVG Repo, www.svgrepo.com, Generator: SVG Repo Mixer Tools -->
<svg height="800px" width="800px" version="1.1" id="Layer_1" xmlns="http://www.w3.org/2000/svg" xmlns:xlink="http://www.w3.org/1999/xlink" 
	 viewBox="0 0 512 512" xml:space="preserve">
<path style="fill:#EC5565;" d="M0,256.006C0,397.402,114.606,512.004,255.996,512C397.394,512.004,512,397.402,512,256.006
	C512.009,114.61,397.394,0,255.996,0C114.606,0,0,114.614,0,256.006z"/>
<path style="fill:#D94453;" d="M512,256.005c0.002-35.02-7.046-68.387-19.772-98.786c-0.291-0.359-0.556-0.738-0.949-1.021
	c-0.061-0.045-67.051-66.963-67.113-67.005c-0.419-0.555-0.839-1.115-1.436-1.543c-3.187-2.285-7.595-1.553-9.867,1.622
	L184.418,407.711c0,0-4.423-4.423-4.425-4.425c-26.662-26.652-53.315-53.315-79.973-79.972l-1.631-1.632
	c-2.762-2.762-7.235-2.762-9.998,0c-2.763,2.762-2.762,7.235,0,9.998c0,0,91.909,91.93,91.913,91.933l86.5,86.5l1.574,1.575
	C404.023,505.231,512,393.247,512,256.005z"/>
<path style="fill:#F4F6F9;" d="M422.731,87.65c-3.186-2.285-7.595-1.553-9.867,1.622L184.41,407.724l-86.02-86.041
	c-2.762-2.762-7.235-2.762-9.997,0c-2.762,2.762-2.762,7.235,0,9.997l91.909,91.93c1.329,1.332,3.131,2.071,4.998,2.071
	c0.19,0,0.383-0.006,0.576-0.02c2.068-0.173,3.959-1.243,5.168-2.927L424.353,97.516C426.627,94.34,425.903,89.929,422.731,87.65z"
	/>
</svg>