<?xml version="1.0" encoding="iso-8859-1"?>
<!-- Uploaded to: SVG Repo, www.svgrepo.com, Generator: SVG Repo Mixer Tools -->
<svg version="1.1" id="Layer_1" xmlns="http://www.w3.org/2000/svg" xmlns:xlink="http://www.w3.org/1999/xlink" 
	 viewBox="0 0 496.2 496.2" xml:space="preserve">
<path style="fill:#48A1AF;" d="M248.1,0C111.1,0,0,111.1,0,248.1s111.1,248.1,248.1,248.1s248.1-111.1,248.1-248.1S385.1,0,248.1,0z
	"/>
<path style="fill:#E6E7E8;" d="M394.8,382.8c-7.3-27.3-69.9-49.3-147.1-49.3s-139.1,22.1-146.4,49.3c-3.3,12.2-7,35.2-10.1,57.5
	c42.7,34.9,97.4,55.9,156.9,55.9s114.1-21,156.9-55.9C401.8,417.9,398.1,394.9,394.8,382.8z"/>
<polygon style="fill:#D4D6D8;" points="247.9,317 208.3,322.3 210.2,335.4 247.8,363.5 286,335.4 287.9,322.3 "/>
<path style="fill:#E2A379;" d="M287,282.1h-77.8c12.1,36.6,1,53.3,1,53.3l26.9,12.9h22l26.9-12.9C286,335.4,274.9,318.7,287,282.1z"
	/>
<path style="fill:#F4B382;" d="M248.1,61.6c-44,0-79.8,21.2-79.8,113.6c0,31.3,5.6,55.8,14,74.7c18.4,41.6,50.3,56.1,65.8,56.1
	s47.3-14.5,65.8-56.1c8.4-18.9,14-43.4,14-74.7C327.9,82.8,292.1,61.6,248.1,61.6z"/>
<g>
	<ellipse style="fill:#3F1C0A;" cx="248.1" cy="66.1" rx="59" ry="44"/>
	<path style="fill:#3F1C0A;" d="M296.5,55.2c-17.9-11.6-96.2,45.5-72,49.9c51.8,9.4,92.9,43.1,96.8,66.2c1.4,8,10.5,8.3,10.5,8.3
		C331.9,123.2,324.6,73.4,296.5,55.2z"/>
	<path style="fill:#3F1C0A;" d="M199.9,55.2c-28,18.2-35.4,68-35.4,124.4c0,0,9.2-0.3,10.5-8.3c3.9-23.1,45.1-56.8,96.8-66.2
		C296.1,100.7,217.7,43.6,199.9,55.2z"/>
</g>
<path style="fill:#E2A379;" d="M247.9,317l-37.7,18.4c0,0,16.8,28.1,37.6,28.1s38.2-28.1,38.2-28.1L247.9,317z"/>
<path style="fill:#E6E7E8;" d="M304.2,336.5l-16.4-14.2l-39.7,19.2l-39.8-19.2l-16.2,14.1l-1.6,1.4c0,0,23.9,117.9,45.1,158
	c4.2,0.2,8.3,0.3,12.6,0.3c4.2,0,8.4-0.1,12.5-0.3c21.3-40.2,45.1-158,45.1-158L304.2,336.5z"/>
<g>
	<path style="fill:#F4B382;" d="M169.8,178c-7.6,1.3-13.4,4.6-9.1,29.7c4.3,25.2,9.6,26.3,17.3,25L169.8,178z"/>
	<path style="fill:#F4B382;" d="M326.5,178l-8.1,54.8c7.6,1.3,13,0.1,17.3-25C339.9,182.6,334.1,179.3,326.5,178z"/>
</g>
<g>
	<path style="fill:#3F1C0A;" d="M174.8,183.1c-0.4-2.7-0.5-5.2-0.4-7.1c0.1-2.9,0.5-4.7,0.5-4.7l-9.4,3.5c0,1.4,0,2.9,0,4.3
		c0,0,0.9-0.3,2.5-0.9c1.3,2.2,2.9,5.6,4.5,10.5C172.4,188.8,176.1,191.5,174.8,183.1z"/>
	<path style="fill:#3F1C0A;" d="M330.7,174.8l-9.3-3.5c0,0,0.4,1.8,0.5,4.7c0.1,2,0,4.4-0.4,7.1c-1.3,8.4,2.3,5.7,2.3,5.7
		c1.5-5,3.2-8.3,4.4-10.5c1.6,0.6,2.5,0.8,2.5,0.8C330.8,177.6,330.8,176.2,330.7,174.8z"/>
	<path style="fill:#3F1C0A;" d="M178.8,221.6c0-20.4-1.8-40.7-1.9-42.8c-0.1-4.1-0.3-8.1-0.6-12.2c-0.3-4.1-0.7-8.1-1.2-12.2
		c-0.6-4.1-1.2-8.1-2.2-12.2c-0.1-0.2-0.2-0.4-0.3-0.5c-0.3-0.1-0.6,0.1-0.7,0.5c-1,4.1-1.6,8.1-2.2,12.2c-0.5,4.1-0.9,8.1-1.2,12.2
		c-0.3,4.1-0.5,8.1-0.6,12.2c-0.1,4.1,0,8.1,0.3,12.2c0.6,8.1,2.3,16.2,2.6,24.4c0.3,8.1-0.2,16.3-1.1,24.4c-0.5,4.1-1,8.1-1.3,12.2
		c-0.4,4.1-0.5,8.1-0.7,12.2c-0.4,8.1-0.8,16.2-0.6,24.4c0.2,8.1,0.6,16.2,1.4,24.4c0.8,8.1,1.8,16.2,3.5,24.4
		c0,0.2,0.2,0.4,0.4,0.5c0.3,0.1,0.6-0.1,0.6-0.5c1.7-8.1,2.7-16.3,3.5-24.4c0.7-8.1,1.2-16.3,1.4-24.4s-0.2-16.3-0.6-24.4
		C177.1,262.1,178.8,241.9,178.8,221.6z"/>
	<path style="fill:#3F1C0A;" d="M328.5,264.1c-0.2-4.1-0.4-8.1-0.7-12.2c-0.3-4.1-0.8-8.1-1.3-12.2c-1-8.1-1.5-16.3-1.1-24.4
		c0.3-8.1,1.9-16.3,2.6-24.4c0.3-4.1,0.4-8.1,0.3-12.2c-0.1-4.1-0.3-8.1-0.6-12.2c-0.3-4.1-0.7-8.1-1.2-12.2
		c-0.6-4.1-1.2-8.1-2.2-12.2c-0.1-0.2-0.2-0.4-0.3-0.5c-0.3-0.1-0.6,0.1-0.7,0.5c-1,4.1-1.6,8.1-2.2,12.2c-0.5,4.1-0.9,8.1-1.2,12.2
		c-0.3,4.1-0.5,8.1-0.6,12.2c-0.1,2.1-1.9,22.9-1.9,43.5c0,20,1.7,39.8,1.6,41.9c-0.4,8.1-0.8,16.2-0.6,24.4
		c0.2,8.1,0.6,16.2,1.4,24.4c0.8,8.1,1.8,16.2,3.5,24.4c0,0.2,0.2,0.4,0.4,0.5c0.3,0.1,0.6-0.1,0.6-0.5c1.7-8.1,2.7-16.3,3.5-24.4
		c0.7-8.1,1.2-16.3,1.4-24.4C329.3,280.4,328.9,272.2,328.5,264.1z"/>
</g>
<path style="fill:#CC785E;" d="M258.5,257.8c-3-0.4-10.4,2.5-10.4,2.5s-7.6-2.9-10.6-2.5c-4.8,0.7-16.1,4.6-16.1,6
	c0,0,14.2,9.6,26.7,9.6c12.5,0,26.7-9.6,26.7-9.6S263.4,258.5,258.5,257.8z"/>
<path style="fill:#C16952;" d="M254.2,264.4c-2-0.1-4.5,1.7-6.1,1.7c-1.9,0-4.8-1.8-7-1.6c-13.1,0.8-19.6-0.7-19.6-0.7
	s14.2,13.5,26.7,13.5c12.5,0,26.7-13.5,26.7-13.5S267.9,265.2,254.2,264.4z"/>
<path style="fill:#30302E;" d="M348.2,400.5c0-3.2-2.6-5.8-5.8-5.8h-1.8l-4.5-50.4c-7.4-2-15.2-3.8-23.6-5.4l-5,55.8H188.7l-5-55.9
	c-8.3,1.5-16.2,3.3-23.6,5.3l-4.5,50.5h-1.8c-3.2,0-5.8,2.6-5.8,5.8l-5.6,72.1c32.1,15.1,67.9,23.6,105.6,23.6
	c37.8,0,73.6-8.5,105.6-23.6L348.2,400.5z"/>
<circle style="fill:#348264;" cx="171.9" cy="394.3" r="7.5"/>
<g>
	<circle style="fill:#4ABC96;" cx="169.6" cy="394.3" r="1.5"/>
	<circle style="fill:#4ABC96;" cx="174.3" cy="394.3" r="1.5"/>
</g>
<circle style="fill:#348264;" cx="324.3" cy="394.3" r="7.5"/>
<g>
	<circle style="fill:#4ABC96;" cx="321.9" cy="394.3" r="1.5"/>
	<circle style="fill:#4ABC96;" cx="326.6" cy="394.3" r="1.5"/>
</g>
<rect x="166.6" y="467.6" style="fill:#1C1C1A;" width="70" height="10"/>
<path style="fill:#D8D8D8;" d="M199.5,453.4l-9.1,3c0,0,1.2,4.7,2.8,11.2h8.4L199.5,453.4z"/>
<path style="fill:#6B6B6B;" d="M214.5,406.8c-3.2-7.1-11.2-10.3-18-7.3s-9.7,11.2-6.6,18.3c0,0,3.6,10.5,4.5,14.5s-1.6,7.1-3.3,8.6
	c-2.6,2.3-3.5,5.5-3.2,8s2.5,7.6,2.5,7.6l9.1-3c0,0-0.5-6.2-0.9-11.1c-0.3-3.8,0.7-10.8,1.9-12.8s4.1-3.1,5.4-3.7
	c0.7-0.2,1.3-0.4,1.9-0.7C214.7,422.1,217.7,413.9,214.5,406.8z M205.7,420.2c-4.2,1.9-9.1-0.1-11.1-4.5c-1.9-4.3-0.1-9.4,4-11.3
	c4.2-1.9,9.1,0.1,11.1,4.5S209.9,418.3,205.7,420.2z"/>
<g>
	<path style="fill:#C6C6C6;" d="M191.8,456l-1.4,0.5c0,0,1.2,4.7,2.8,11.2h1.9L191.8,456z"/>
	<path style="fill:#C6C6C6;" d="M198.8,453.7l-5.1,1.7l5.3-0.6C198.8,454.1,198.8,453.7,198.8,453.7z"/>
	<path style="fill:#C6C6C6;" d="M193.6,455.4l-1.9,0.2l0.1,0.4l0.9-0.3c0-0.1-0.1-0.2-0.1-0.2L193.6,455.4L193.6,455.4z"/>
	<polygon style="fill:#C6C6C6;" points="193.6,455.4 193.6,455.4 198.9,454.8 	"/>
	<path style="fill:#C6C6C6;" d="M192.7,455.7l-0.9,0.3l3.3,11.6h0.9C194.3,461.3,193,456.6,192.7,455.7z"/>
</g>
<g>
	<path style="fill:#B7B7B7;" d="M201.2,454.6l-2.3,0.2c0.3,2.1,1.1,6.8,2,12.8h2.6C202.2,460.1,201.2,454.6,201.2,454.6z"/>
	<path style="fill:#B7B7B7;" d="M192.7,455.5c0,0,0,0.1,0.1,0.2l0.9-0.3L192.7,455.5z"/>
	<path style="fill:#B7B7B7;" d="M198.9,454.8l-5.3,0.6l-0.9,0.3c0.3,1,1.5,5.6,3.2,11.9h4.9C200,461.6,199.3,456.9,198.9,454.8z"/>
</g>
<path style="fill:#6B6B6B;" d="M200.4,446.6c-0.8-2.3-2.9-4.9-6.2-6c-2.1-0.6-5.7-2.5-6.5-6.5s-1.8-15-1.8-15c0-7.7-6-14-13.5-14
	c-7.4,0-13.5,6.3-13.5,14s6,14,13.5,14c0.7,0,1.4-0.1,2.1-0.2c1.4,0,4.6-0.1,6.5,1.2c1.9,1.3,5.7,7.3,7,10.9
	c1.7,4.7,3.8,10.5,3.8,10.5l9.5-1C201.2,454.6,201.2,449,200.4,446.6z M172.4,427.8c-4.6,0-8.3-3.9-8.3-8.6c0-4.8,3.7-8.6,8.3-8.6
	s8.3,3.9,8.3,8.6C180.7,423.9,177,427.8,172.4,427.8z"/>
<circle style="fill:#C1C1C1;" cx="193.9" cy="450.7" r="2.5"/>
<path style="fill:#B2B1B1;" d="M195.7,448.9c-1-1-2.6-1-3.6,0l3.6,3.6C196.7,451.5,196.7,449.8,195.7,448.9z"/>
</svg>